# xmcd
#
# Track frame offsets:
#	150
#	17501
#	35571
#	51404
#	69501
#	82602
#	100608
#	119586
#	135083
#	149281
#	167564
#	183531
#	195810
#	211086
#	226681
#	242665
#	257394
#	272105
#	286025
#	301292
#	321706
#
# Disc length: 4489 seconds
#
# Revision: 24
# Processed by: cddbd v1.5.2PL0 Copyright (c) Steve Scherf et al.
# Submitted via: audiograbber 1.83.01
#
DISCID=12118715
DTITLE=Bravo - Bravo Hits 33 - CD1
DYEAR=2001
DGENRE=Pop
TTITLE0=Shaggy feat. Rik Rok - It wasn't me
TTITLE1=Destiny's Child - Survivor
TTITLE2=Ronan Keating - Lovin' each day
TTITLE3=Wheatus - Teenage dirtbag
TTITLE4=Sofaplanet - Liebficken
TTITLE5=Loona - Baila mi ritmo
TTITLE6=Nelly - E.I.
TTITLE7=O-Town - Liquid dreams
TTITLE8=Dario G. - Dream to me
TTITLE9=Sylver - Turn the tide
TTITLE10=Members Of Mayday - 10In01
TTITLE11=Blank and Jones - DJs, Fans and Freaks (D.F.F.)
TTITLE12=Kay Cee - Unsolved mysteries
TTITLE13=DJ Quicksilver - Ameno
TTITLE14=Barthezz - On the move
TTITLE15=Safri Duo - Played-a-live (The bongo song)
TTITLE16=Right Said Fred - You're my mate
TTITLE17=Niemann - Im Osten
TTITLE18=Aerger - Kleine Schwester
TTITLE19=Rammstein - Sonne
TTITLE20=Mittermeier vs. Guano Babes - Kumba yo!
EXTD=
EXTT0=
EXTT1=
EXTT2=
EXTT3=
EXTT4=
EXTT5=
EXTT6=
EXTT7=
EXTT8=
EXTT9=
EXTT10=
EXTT11=
EXTT12=
EXTT13=
EXTT14=
EXTT15=
EXTT16=
EXTT17=
EXTT18=
EXTT19=
EXTT20=
PLAYORDER=
